<svg id="Layer_1" data-name="Layer 1" xmlns="http://www.w3.org/2000/svg" viewBox="0 0 188.59 31.76"><defs><style>.cls-1{fill:#efe914;}</style></defs><title>logo_small</title><path class="cls-1" d="M34.43,17.91v8.71l1.48.79v2.85l-2.27,1.07H27.45l-2.19-1.07V27.41l1.57-.79V16.84c0-1.4-.62-2.23-2.48-2.23s-2.51.83-2.51,2.23v9.78l1.4.79v2.85l-2.19,1.07H14.86l-2.19-1.07V27.41l1.57-.79V16.84c0-1.4-.62-2.23-2.47-2.23s-2.52.83-2.52,2.23v9.78l1.57.79v2.85L8.63,31.33H2.27L0,30.26V27.41l1.65-.79V14L0,13.21V10L2.68,8.92H7.51l1.41,3.21c1.44-2.51,3-3.55,6.48-3.55,3,0,4.58,1.08,5.57,3.43,1.61-2.52,3.55-3.43,6.81-3.43C33.15,8.58,34.43,12,34.43,17.91Z"/><path class="cls-1" d="M53.52,26.27a6.75,6.75,0,0,0,4.58-3.91,1,1,0,0,1,1.88.5c0,2.42-.9,6.37-6.85,8.2-6.75,2.07-11.54-.6-13.27-6.21l-1.07-3.51C37.14,16,39.34,11.06,46,9c6.39-2,10.43-.22,13.29,9.09l-11.7,5.36C48.61,26.74,50.08,27.33,53.52,26.27Zm-2.08-8.86L51,16c-.78-2.53-1.47-3-3.57-2.32S45,15.23,45.77,17.64l.65,2.13Z"/><path class="cls-1" d="M72.79,26.62l1.65.79v2.85l-2.27,1.07H65.81l-2.27-1.07V27.41l1.65-.79V14l-1.65-.78V10l2.69-1.07h4.82l1.41,3.21c1.44-2.51,3.22-3.55,6.69-3.55,5.15,0,6.64,3.43,6.64,9.33v8.71l1.49.79v2.85L85,31.33H78.82l-2.27-1.07V27.41l1.65-.79V16.84c0-1.4-.71-2.15-2.56-2.15a5.18,5.18,0,0,0-2.85.71Z"/><path class="cls-1" d="M104.46,13.62l-1.65-.78V10l2.27-1.07h6.36L113.71,10v2.85l-1.65.78V26.25l1.65.79v3.22L111,31.33h-4.83l-1.36-2.77c-1.44,2.4-3,3.18-6.73,3.18-5.16,0-6.64-3.51-6.64-9.41V13.62L90,12.84V10l2.27-1.07h6.19L100.7,10v2.85l-1.65.78V23.78c0,1.4.87,2.14,2.73,2.14s2.68-.74,2.68-2.14Z"/><path class="cls-1" d="M130.47,27.28A6.77,6.77,0,0,0,136,24.89a1,1,0,0,1,1.65,1c-.7,2.31-2.72,5.82-9,5.82-7,0-10.85-4-10.85-9.82V18.24c0-5.61,3.55-9.66,10.48-9.66,6.69,0,10,2.85,10,12.6L125.6,22.87C125.64,26.29,126.88,27.28,130.47,27.28Zm.62-9.08V16.76c0-2.64-.54-3.26-2.73-3.26s-2.76.74-2.76,3.26V19Z"/><path class="cls-1" d="M146.66,2.15h3.92V8.92h6.15v4.66h-6.15v9.78c0,2.85.54,4,2.19,4a3.82,3.82,0,0,0,3-1.24c.87-.87,2.32-.17,1.45,1.65-1.07,2.27-3,4-6.89,4-4.38,0-7.39-1.81-7.39-7.51V13.58h-2.4V8.92C143.19,8.92,145.79,7.59,146.66,2.15Z"/><path class="cls-1" d="M162.71,2.15h3.92V8.92h6.15v4.66h-6.15v9.78c0,2.85.53,4,2.18,4a3.84,3.84,0,0,0,3.06-1.24c.87-.87,2.31-.17,1.44,1.65-1.07,2.27-3,4-6.89,4-4.37,0-7.39-1.81-7.39-7.51V13.58h-2.39V8.92C159.24,8.92,161.84,7.59,162.71,2.15Z"/><path class="cls-1" d="M188.59,27.41v2.85l-2.27,1.07h-7.18l-2.27-1.07V27.41l2.06-.79V14l-2.06-.78V10.15l6.48-1.23h3.18v17.7ZM183.1,7.35H182a3.34,3.34,0,0,1-3.59-3.47V3.47A3.32,3.32,0,0,1,182,0h1.07a3.33,3.33,0,0,1,3.59,3.47v.41A3.35,3.35,0,0,1,183.1,7.35Z"/></svg>